<svg xmlns="http://www.w3.org/2000/svg" xmlns:xlink="http://www.w3.org/1999/xlink" width="28" height="28" version="1.1" viewBox="0 0 28 28"><title>95FBEAE7-7868-4E31-B909-A920CE5753E7</title><g id="Validator" fill="none" fill-rule="evenodd" stroke="none" stroke-width="1"><g id="Popup_Connect1" transform="translate(-362.000000, -526.000000)"><g id="Icon2" transform="translate(362.000000, 526.000000)"><path id="Path" fill="#132533" fill-rule="nonzero" d="M19.8969946,-8.97060204e-14 L9.04300531,-8.97060204e-14 L9.04300531,14.6427583 L23.697678,14.6427583 L23.697678,3.78876902 C23.697678,1.70971181 21.9867747,-8.97060204e-14 19.9089089,-8.97060204e-14 C19.9053346,-8.97060204e-14 19.9005689,-8.97060204e-14 19.8969946,-8.97060204e-14 Z"/><path id="Path" fill="#132533" fill-rule="nonzero" d="M5.6593248,-3.73034936e-14 L3.78876902,-3.73034936e-14 C1.71090324,-3.73034936e-14 4.14779322e-13,1.71090324 4.14779322e-13,3.78876902 L4.14779322e-13,5.6593248 L5.6593248,5.6593248 L5.6593248,-3.73034936e-14 Z"/><polygon id="Path" fill="#132533" fill-rule="nonzero" points="0 9.043 5.659 9.043 5.659 14.702 0 14.702"/><path id="Path" fill="#132533" fill-rule="nonzero" d="M18.0860106,23.697678 L19.9565664,23.697678 C22.0356236,23.697678 23.7453354,21.9867747 23.7453354,19.9089089 C23.7453354,19.9053346 23.7453354,19.9005689 23.7453354,19.8969946 L23.7453354,18.0860106 L18.0860106,18.0860106 L18.0860106,23.697678 Z"/><polygon id="Path" fill="#132533" fill-rule="nonzero" points="9.043 18.086 14.702 18.086 14.702 23.745 9.043 23.745"/><path id="Path" fill="#132533" fill-rule="nonzero" d="M4.14779322e-13,18.0860106 L4.14779322e-13,19.9565664 C4.14779322e-13,22.0344322 1.71090324,23.7453354 3.78876902,23.7453354 L5.6593248,23.7453354 L5.6593248,18.0860106 L4.14779322e-13,18.0860106 Z"/><circle id="Oval" cx="22" cy="21.766" r="6" fill="#FFF"/><path id="Path" fill="#132533" fill-rule="nonzero" d="M19.8969946,-8.97060204e-14 L9.04300531,-8.97060204e-14 L9.04300531,14.6427583 L23.697678,14.6427583 L23.697678,3.78876902 C23.697678,1.70971181 21.9867747,-8.97060204e-14 19.9089089,-8.97060204e-14 C19.9053346,-8.97060204e-14 19.9005689,-8.97060204e-14 19.8969946,-8.97060204e-14 Z"/><path id="Path" fill="#132533" fill-rule="nonzero" d="M5.6593248,-3.73034936e-14 L3.78876902,-3.73034936e-14 C1.71090324,-3.73034936e-14 4.14779322e-13,1.71090324 4.14779322e-13,3.78876902 L4.14779322e-13,5.6593248 L5.6593248,5.6593248 L5.6593248,-3.73034936e-14 Z"/><polygon id="Path" fill="#132533" fill-rule="nonzero" points="0 9.043 5.659 9.043 5.659 14.702 0 14.702"/><path id="Path" fill="#132533" fill-rule="nonzero" d="M18.0860106,23.697678 L19.9565664,23.697678 C22.0356236,23.697678 23.7453354,21.9867747 23.7453354,19.9089089 C23.7453354,19.9053346 23.7453354,19.9005689 23.7453354,19.8969946 L23.7453354,18.0860106 L18.0860106,18.0860106 L18.0860106,23.697678 Z"/><polygon id="Path" fill="#132533" fill-rule="nonzero" points="9.043 18.086 14.702 18.086 14.702 23.745 9.043 23.745"/><path id="Path" fill="#132533" fill-rule="nonzero" d="M4.14779322e-13,18.0860106 L4.14779322e-13,19.9565664 C4.14779322e-13,22.0344322 1.71090324,23.7453354 3.78876902,23.7453354 L5.6593248,23.7453354 L5.6593248,18.0860106 L4.14779322e-13,18.0860106 Z"/><circle id="Oval" cx="22" cy="21.766" r="6" fill="#FFF"/><path id="Shape" fill="#5269FF" d="M21.988881,15.76608 C18.6909241,15.76608 16.017504,18.4394977 16.017504,21.7374547 C16.017504,25.0353965 18.6909241,27.7088142 21.988881,27.7088142 C25.2868608,27.7088142 27.9602785,25.0353965 27.9602785,21.7374547 C27.9602785,18.4395585 25.2867848,15.76608 21.988881,15.76608 Z M24.4447342,24.2313965 L21.9496835,25.6743585 L21.9496835,25.6748901 L21.9486506,25.6748901 L19.4520506,24.2313965 L19.4520506,19.2382041 L19.4546329,19.2397534 L21.9476177,17.7999053 L23.5477418,18.6927661 L23.5482582,18.6927661 L23.5482582,20.9468977 L22.7696481,20.4996927 L22.7696481,19.1420446 L21.9486506,18.6741585 L20.2301367,19.6678344 L20.2301367,23.8069154 L21.9486506,24.800637 L23.6671646,23.8100294 L23.675443,22.1091205 L21.2336329,20.6925357 L22.0179316,20.2799635 L24.450962,21.6986218 L24.4447342,24.2313965 Z M22.4192101,21.5752268 L21.861119,21.87288 L21.861119,21.2571281 L21.2334734,20.8869585 L21.2334734,22.9384192 L23.0202354,21.9209635 L22.4192101,21.5752268 Z"/></g></g></g></svg>